<svg width="137" height="140" viewBox="0 0 137 140" fill="none" xmlns="http://www.w3.org/2000/svg">
<path d="M52.144 12C52.144 9.79086 50.3531 8 48.144 8H8.14395C5.93481 8 4.14395 9.79086 4.14395 12V132C4.14395 134.209 5.93481 136 8.14395 136H48.144C50.3531 136 52.144 134.209 52.144 132V12Z" stroke="black" stroke-opacity="0.25" stroke-width="8"/>
<path d="M88.144 8C85.9348 8 84.144 9.79086 84.144 12V132C84.144 134.209 85.9348 136 88.144 136H128.144C130.353 136 132.144 134.209 132.144 132V12C132.144 9.79086 130.353 8 128.144 8H88.144Z" stroke="black" stroke-opacity="0.25" stroke-width="8"/>
<path d="M52.144 8C52.144 5.79086 50.3531 4 48.144 4H8.14395C5.93481 4 4.14395 5.79086 4.14395 8V128C4.14395 130.209 5.93481 132 8.14395 132H48.144C50.3531 132 52.144 130.209 52.144 128V8Z" fill="url(#paint0_linear_5_51)"/>
<path d="M88.144 4C85.9348 4 84.144 5.79086 84.144 8V128C84.144 130.209 85.9348 132 88.144 132H128.144C130.353 132 132.144 130.209 132.144 128V8C132.144 5.79086 130.353 4 128.144 4H88.144Z" fill="url(#paint1_linear_5_51)"/>
<path d="M52.144 8C52.144 5.79086 50.3531 4 48.144 4H8.14395C5.93481 4 4.14395 5.79086 4.14395 8V128C4.14395 130.209 5.93481 132 8.14395 132H48.144C50.3531 132 52.144 130.209 52.144 128V8Z" stroke="#BF9000" stroke-width="8"/>
<path d="M88.144 4C85.9348 4 84.144 5.79086 84.144 8V128C84.144 130.209 85.9348 132 88.144 132H128.144C130.353 132 132.144 130.209 132.144 128V8C132.144 5.79086 130.353 4 128.144 4H88.144Z" stroke="#BF9000" stroke-width="8"/>
<defs>
<linearGradient id="paint0_linear_5_51" x1="68.144" y1="4" x2="68.144" y2="132" gradientUnits="userSpaceOnUse">
<stop stop-color="#FFEF20"/>
<stop offset="1" stop-color="#DFBF05"/>
</linearGradient>
<linearGradient id="paint1_linear_5_51" x1="68.144" y1="4" x2="68.144" y2="132" gradientUnits="userSpaceOnUse">
<stop stop-color="#FFEF20"/>
<stop offset="1" stop-color="#DFBF05"/>
</linearGradient>
</defs>
</svg>
