<svg width="136" height="140" viewBox="0 0 136 140" fill="none" xmlns="http://www.w3.org/2000/svg">
<path d="M40.3188 9.17157C41.0689 8.42143 42.0863 8 43.1472 8L92.8528 8C93.9137 8 94.9311 8.42143 95.6812 9.17157L130.828 44.3188C131.579 45.0689 132 46.0863 132 47.1472V96.8528C132 97.9137 131.579 98.9311 130.828 99.6812L95.6812 134.828C94.9311 135.579 93.9137 136 92.8528 136H43.1472C42.0863 136 41.0689 135.579 40.3188 134.828L5.17157 99.6812C4.42143 98.9311 4 97.9137 4 96.8528L4 47.1472C4 46.0863 4.42143 45.0689 5.17157 44.3188L40.3188 9.17157Z" stroke="black" stroke-opacity="0.25" stroke-width="8"/>
<path d="M40.3188 5.17157C41.0689 4.42143 42.0863 4 43.1472 4L92.8528 4C93.9137 4 94.9311 4.42143 95.6812 5.17157L130.828 40.3188C131.579 41.0689 132 42.0863 132 43.1472V92.8528C132 93.9137 131.579 94.9311 130.828 95.6812L95.6812 130.828C94.9311 131.579 93.9137 132 92.8528 132H43.1472C42.0863 132 41.0689 131.579 40.3188 130.828L5.17157 95.6812C4.42143 94.9311 4 93.9137 4 92.8528L4 43.1472C4 42.0863 4.42143 41.0689 5.17157 40.3188L40.3188 5.17157Z" fill="url(#paint0_linear_5_32)" stroke="#900005" stroke-width="8"/>
<defs>
<linearGradient id="paint0_linear_5_32" x1="68" y1="4" x2="68" y2="132" gradientUnits="userSpaceOnUse">
<stop stop-color="#FF2530"/>
<stop offset="1" stop-color="#DF0005"/>
</linearGradient>
</defs>
</svg>
