<svg width="104" height="140" viewBox="0 0 104 140" fill="none" xmlns="http://www.w3.org/2000/svg">
<path d="M8.00001 8C8.00001 5.79086 6.20914 4 4.00001 4C1.79087 4 5.29143e-06 5.79086 5.20166e-06 8L8.00001 8ZM0 136C-8.97749e-08 138.209 1.79086 140 4 140C6.20914 140 8 138.209 8 136L0 136ZM97.515 78.9319L96.1105 75.1866L97.515 78.9319ZM55.0079 79.128L53.6034 82.8733L55.0079 79.128ZM5.20166e-06 8L0 136L8 136L8.00001 8L5.20166e-06 8ZM0 21V85H8V21H0ZM104 75.346V18.9694H96V75.346H104ZM97.6923 83.1374L98.9195 82.6772L96.1105 75.1866L94.8833 75.6468L97.6923 83.1374ZM58.0575 11.9995L56.4124 11.3826L53.6034 18.8733L55.2485 19.4902L58.0575 11.9995ZM53.6034 82.8733L54.3077 83.1374L57.1167 75.6468L56.4124 75.3826L53.6034 82.8733ZM94.8833 75.6468C82.7084 80.2124 69.2916 80.2124 57.1167 75.6468L54.3077 83.1374C68.2937 88.3821 83.7063 88.3821 97.6923 83.1374L94.8833 75.6468ZM93.9425 11.9995C82.3742 16.3377 69.6258 16.3377 58.0575 11.9995L55.2485 19.4902C68.6279 24.5075 83.3721 24.5075 96.7515 19.4902L93.9425 11.9995ZM6.2188 24.3282C20.2174 14.9958 37.8503 12.9659 53.6034 18.8733L56.4124 11.3826C38.2502 4.57181 17.9207 6.91216 1.7812 17.6718L6.2188 24.3282ZM96 75.346C96 75.275 96.044 75.2115 96.1105 75.1866L98.9195 82.6772C101.975 81.5312 104 78.6098 104 75.346H96ZM6.2188 88.3282C20.2174 78.9958 37.8503 76.9659 53.6034 82.8733L56.4124 75.3826C38.2502 68.5718 17.9207 70.9122 1.7812 81.6718L6.2188 88.3282ZM104 18.9694C104 13.7721 98.8089 10.1747 93.9425 11.9995L96.7515 19.4902C96.3879 19.6265 96 19.3577 96 18.9694H104Z" fill="black" fill-opacity="0.25"/>
<path d="M100 14.9694C100 12.5649 97.5984 10.9006 95.347 11.7449V11.7449C82.8731 16.4226 69.1269 16.4226 56.653 11.7449L54.574 10.9653C37.8888 4.7083 19.2125 6.85833 4.38551 16.743V16.743C4.14466 16.9036 4 17.1739 4 17.4633V79.4446C4 80.1095 4.74097 80.506 5.29416 80.1372V80.1372C19.5506 70.6329 37.5083 68.5656 53.5515 74.5818L55.7122 75.3921C68.7927 80.2973 83.2073 80.2973 96.2878 75.3921L97.515 74.9319C99.0098 74.3713 100 72.9424 100 71.346V14.9694Z" fill="url(#paint0_linear_5_27)"/>
<path d="M8.00001 4C8.00001 1.79086 6.20914 8.97749e-08 4.00001 0C1.79087 -8.97749e-08 5.29143e-06 1.79086 5.20166e-06 4L8.00001 4ZM0 132C-8.97749e-08 134.209 1.79086 136 4 136C6.20914 136 8 134.209 8 132L0 132ZM97.515 74.9319L96.1105 71.1866L97.515 74.9319ZM55.0079 75.128L53.6034 78.8733L55.0079 75.128ZM5.20166e-06 4L0 132L8 132L8.00001 4L5.20166e-06 4ZM0 17V81H8V17H0ZM104 71.346V14.9694H96V71.346H104ZM97.6923 79.1374L98.9195 78.6772L96.1105 71.1866L94.8833 71.6468L97.6923 79.1374ZM58.0575 7.99954L56.4124 7.38263L53.6034 14.8733L55.2485 15.4902L58.0575 7.99954ZM53.6034 78.8733L54.3077 79.1374L57.1167 71.6468L56.4124 71.3826L53.6034 78.8733ZM94.8833 71.6468C82.7084 76.2124 69.2916 76.2124 57.1167 71.6468L54.3077 79.1374C68.2937 84.3821 83.7063 84.3821 97.6923 79.1374L94.8833 71.6468ZM93.9425 7.99954C82.3742 12.3377 69.6258 12.3377 58.0575 7.99954L55.2485 15.4902C68.6279 20.5075 83.3721 20.5075 96.7515 15.4902L93.9425 7.99954ZM6.2188 20.3282C20.2174 10.9958 37.8503 8.96587 53.6034 14.8733L56.4124 7.38263C38.2502 0.571812 17.9207 2.91216 1.7812 13.6718L6.2188 20.3282ZM96 71.346C96 71.275 96.044 71.2115 96.1105 71.1866L98.9195 78.6772C101.975 77.5312 104 74.6098 104 71.346H96ZM6.2188 84.3282C20.2174 74.9958 37.8503 72.9659 53.6034 78.8733L56.4124 71.3826C38.2502 64.5718 17.9207 66.9122 1.7812 77.6718L6.2188 84.3282ZM104 14.9694C104 9.77208 98.8089 6.17465 93.9425 7.99954L96.7515 15.4902C96.3879 15.6265 96 15.3577 96 14.9694H104Z" fill="#003080"/>
<defs>
<linearGradient id="paint0_linear_5_27" x1="52" y1="1" x2="52" y2="83" gradientUnits="userSpaceOnUse">
<stop stop-color="#0080FF"/>
<stop offset="1" stop-color="#0060BF"/>
</linearGradient>
</defs>
</svg>
